<mxfile host="Electron" modified="2025-01-07T09:21:17.480Z" agent="Mozilla/5.0 (Macintosh; Intel Mac OS X 10_15_7) AppleWebKit/537.36 (KHTML, like Gecko) draw.io/24.6.4 Chrome/124.0.6367.207 Electron/30.0.6 Safari/537.36" etag="b6CUEANSP2BSnZ4Dh-eB" version="24.6.4" type="device">
  <diagram name="Pagina-1" id="iq1eVvlh1TdPtBgCEuab">
    <mxGraphModel dx="1038" dy="632" grid="0" gridSize="10" guides="1" tooltips="1" connect="1" arrows="1" fold="1" page="1" pageScale="1" pageWidth="1600" pageHeight="1200" math="0" shadow="0">
      <root>
        <mxCell id="0" />
        <mxCell id="1" parent="0" />
        <mxCell id="j3jYI4CUMqFvq9skrI7c-10" value="" style="swimlane;startSize=0;strokeColor=none;" vertex="1" parent="1">
          <mxGeometry x="234" y="255" width="663" height="247" as="geometry">
            <mxRectangle x="440" y="240" width="50" height="40" as="alternateBounds" />
          </mxGeometry>
        </mxCell>
        <mxCell id="j3jYI4CUMqFvq9skrI7c-11" value="task name" style="text;html=1;align=center;verticalAlign=middle;resizable=0;points=[];autosize=1;strokeColor=none;fillColor=none;" vertex="1" parent="j3jYI4CUMqFvq9skrI7c-10">
          <mxGeometry x="22.5" y="53" width="73" height="26" as="geometry" />
        </mxCell>
        <mxCell id="j3jYI4CUMqFvq9skrI7c-12" value="task description" style="text;html=1;align=center;verticalAlign=middle;resizable=0;points=[];autosize=1;strokeColor=none;fillColor=none;" vertex="1" parent="j3jYI4CUMqFvq9skrI7c-10">
          <mxGeometry x="22.5" y="96" width="101" height="26" as="geometry" />
        </mxCell>
        <mxCell id="j3jYI4CUMqFvq9skrI7c-13" value="created by ... on ..." style="text;html=1;align=center;verticalAlign=middle;resizable=0;points=[];autosize=1;strokeColor=none;fillColor=none;" vertex="1" parent="j3jYI4CUMqFvq9skrI7c-10">
          <mxGeometry x="22.5" y="204" width="117" height="26" as="geometry" />
        </mxCell>
        <mxCell id="j3jYI4CUMqFvq9skrI7c-22" value="" style="rounded=0;whiteSpace=wrap;html=1;" vertex="1" parent="j3jYI4CUMqFvq9skrI7c-10">
          <mxGeometry x="454" y="40" width="94" height="113" as="geometry" />
        </mxCell>
        <mxCell id="j3jYI4CUMqFvq9skrI7c-23" value="assigned users" style="text;html=1;align=center;verticalAlign=middle;whiteSpace=wrap;rounded=0;" vertex="1" parent="j3jYI4CUMqFvq9skrI7c-10">
          <mxGeometry x="442" y="10" width="111" height="30" as="geometry" />
        </mxCell>
        <mxCell id="j3jYI4CUMqFvq9skrI7c-25" value="username 1" style="text;html=1;align=center;verticalAlign=middle;whiteSpace=wrap;rounded=0;" vertex="1" parent="j3jYI4CUMqFvq9skrI7c-10">
          <mxGeometry x="454" y="43" width="89" height="30" as="geometry" />
        </mxCell>
        <mxCell id="j3jYI4CUMqFvq9skrI7c-26" value="username 2" style="text;html=1;align=center;verticalAlign=middle;whiteSpace=wrap;rounded=0;" vertex="1" parent="j3jYI4CUMqFvq9skrI7c-10">
          <mxGeometry x="454" y="80" width="89" height="30" as="geometry" />
        </mxCell>
        <mxCell id="j3jYI4CUMqFvq9skrI7c-27" value="username 3" style="text;html=1;align=center;verticalAlign=middle;whiteSpace=wrap;rounded=0;" vertex="1" parent="j3jYI4CUMqFvq9skrI7c-10">
          <mxGeometry x="454" y="115" width="89" height="30" as="geometry" />
        </mxCell>
        <mxCell id="j3jYI4CUMqFvq9skrI7c-31" value="" style="endArrow=none;html=1;rounded=0;entryX=1.006;entryY=0.296;entryDx=0;entryDy=0;entryPerimeter=0;" edge="1" parent="j3jYI4CUMqFvq9skrI7c-10" target="j3jYI4CUMqFvq9skrI7c-22">
          <mxGeometry width="50" height="50" relative="1" as="geometry">
            <mxPoint x="454" y="73" as="sourcePoint" />
            <mxPoint x="546" y="74" as="targetPoint" />
          </mxGeometry>
        </mxCell>
        <mxCell id="j3jYI4CUMqFvq9skrI7c-44" value="" style="endArrow=none;html=1;rounded=0;entryX=1.006;entryY=0.296;entryDx=0;entryDy=0;entryPerimeter=0;" edge="1" parent="j3jYI4CUMqFvq9skrI7c-10">
          <mxGeometry width="50" height="50" relative="1" as="geometry">
            <mxPoint x="453" y="115" as="sourcePoint" />
            <mxPoint x="548" y="115" as="targetPoint" />
          </mxGeometry>
        </mxCell>
        <mxCell id="j3jYI4CUMqFvq9skrI7c-45" value="task status" style="text;html=1;align=center;verticalAlign=middle;resizable=0;points=[];autosize=1;strokeColor=none;fillColor=none;" vertex="1" parent="j3jYI4CUMqFvq9skrI7c-10">
          <mxGeometry x="22.5" y="147" width="75" height="26" as="geometry" />
        </mxCell>
        <mxCell id="j3jYI4CUMqFvq9skrI7c-46" value="project title" style="text;html=1;align=center;verticalAlign=middle;resizable=0;points=[];autosize=1;strokeColor=none;fillColor=none;" vertex="1" parent="j3jYI4CUMqFvq9skrI7c-10">
          <mxGeometry x="22.5" y="7" width="76" height="26" as="geometry" />
        </mxCell>
        <mxCell id="j3jYI4CUMqFvq9skrI7c-33" value="&lt;span style=&quot;white-space: pre;&quot;&gt;&#x9;&lt;/span&gt;&lt;span style=&quot;white-space: pre;&quot;&gt;&#x9;&lt;/span&gt;navigation bar title (&quot;Task Manager&quot;)" style="rounded=0;whiteSpace=wrap;html=1;align=left;" vertex="1" parent="1">
          <mxGeometry x="170" y="150" width="740" height="60" as="geometry" />
        </mxCell>
        <mxCell id="j3jYI4CUMqFvq9skrI7c-34" value="log out button" style="rounded=1;whiteSpace=wrap;html=1;" vertex="1" parent="1">
          <mxGeometry x="810" y="160" width="90" height="40" as="geometry" />
        </mxCell>
        <mxCell id="j3jYI4CUMqFvq9skrI7c-35" value="profile" style="text;html=1;align=center;verticalAlign=middle;whiteSpace=wrap;rounded=0;" vertex="1" parent="1">
          <mxGeometry x="740" y="165" width="60" height="30" as="geometry" />
        </mxCell>
        <mxCell id="j3jYI4CUMqFvq9skrI7c-36" value="dashboard" style="text;html=1;align=center;verticalAlign=middle;whiteSpace=wrap;rounded=0;" vertex="1" parent="1">
          <mxGeometry x="670" y="165" width="60" height="30" as="geometry" />
        </mxCell>
        <mxCell id="j3jYI4CUMqFvq9skrI7c-37" value="new project" style="text;html=1;align=center;verticalAlign=middle;whiteSpace=wrap;rounded=0;" vertex="1" parent="1">
          <mxGeometry x="580" y="165" width="73" height="30" as="geometry" />
        </mxCell>
        <mxCell id="j3jYI4CUMqFvq9skrI7c-40" value="&lt;b&gt;task name&lt;/b&gt;&lt;div&gt;&lt;div&gt;&lt;b&gt;task description&lt;/b&gt;&lt;/div&gt;&lt;div&gt;&lt;b&gt;&lt;font color=&quot;#0000ff&quot;&gt;task status&lt;/font&gt;&lt;/b&gt;&lt;/div&gt;&lt;div&gt;&lt;b&gt;table with &#39;user&#39;&lt;/b&gt;&lt;/div&gt;&lt;/div&gt;" style="shape=parallelogram;perimeter=parallelogramPerimeter;whiteSpace=wrap;html=1;fixedSize=1;" vertex="1" parent="1">
          <mxGeometry x="653" y="798" width="317" height="119" as="geometry" />
        </mxCell>
        <mxCell id="j3jYI4CUMqFvq9skrI7c-41" value="edit and add &lt;font color=&quot;#0000ff&quot;&gt;(edit for general project members)&lt;/font&gt;" style="text;html=1;align=center;verticalAlign=middle;resizable=0;points=[];autosize=1;strokeColor=none;fillColor=none;" vertex="1" parent="1">
          <mxGeometry x="691" y="775" width="268" height="26" as="geometry" />
        </mxCell>
      </root>
    </mxGraphModel>
  </diagram>
</mxfile>
